<?xml version="1.0" encoding="UTF-8" standalone="no"?>
<!-- Created with Inkscape (http://www.inkscape.org/) -->

<svg
   xmlns:dc="http://purl.org/dc/elements/1.1/"
   xmlns:cc="http://creativecommons.org/ns#"
   xmlns:rdf="http://www.w3.org/1999/02/22-rdf-syntax-ns#"
   xmlns:svg="http://www.w3.org/2000/svg"
   xmlns="http://www.w3.org/2000/svg"
   version="1.1"
   width="300"
   height="219.13789"
   id="svg2">
  <defs
     id="defs4" />
  <metadata
     id="metadata7">
    <rdf:RDF>
      <cc:Work
         rdf:about="">
        <dc:format>image/svg+xml</dc:format>
        <dc:type
           rdf:resource="http://purl.org/dc/dcmitype/StillImage" />
        <dc:title></dc:title>
      </cc:Work>
    </rdf:RDF>
  </metadata>
  <g
     transform="translate(-336.59664,-108.86277)"
     id="layer1">
    <g
       transform="matrix(1.0742152,0,0,1.0742152,-24.980601,-24.342648)"
       id="g4004">
      <path
         d="m 343.55851,328.00067 12.46891,-98.06858 223.26657,8.39794 14.70107,71.60102 -250.43655,18.06962 z"
         id="path3287"
         style="fill:#e20025;fill-opacity:1;fill-rule:nonzero;stroke:none" />
      <path
         d="m 404.40767,263.89223 c -3.70258,-1.39237 -9.23149,-2.31021 -13.9643,-2.31021 -11.00786,0 -16.73969,3.93985 -16.73969,11.58541 0,10.47713 13.6927,9.36573 13.6927,13.48978 0,1.1114 -1.12388,1.94495 -2.57245,1.94495 -3.10318,0 -6.70899,-2.26963 -8.76633,-5.5133 l -3.80248,11.54795 c 4.9732,1.90124 10.17118,2.59431 15.98106,2.59431 11.34814,0 16.78027,-4.174 16.78027,-11.35751 0,-2.68797 -0.8398,-4.87331 -2.43197,-6.44675 -3.94298,-3.88678 -13.40236,-5.15115 -13.40236,-7.65805 0,-1.19569 0.83979,-2.03236 2.70669,-2.03236 3.19059,0 6.33436,1.85441 8.67267,5.05749 l 3.84619,-10.90171 z"
         id="path3293"
         style="fill:#ffd900;fill-opacity:1;fill-rule:nonzero;stroke:none" />
      <path
         d="m 409.37151,277.43508 7.78292,0 0,19.24034 15.45971,0 0,-19.24034 7.78604,0 0,-15.29736 -31.02867,0 0,15.29736 z"
         id="path3295"
         style="fill:#ffd900;fill-opacity:1;fill-rule:nonzero;stroke:none" />
      <path
         d="m 445.34217,279.38628 c 0,10.01196 7.87033,17.84484 17.89167,17.84484 10.03694,0 17.90415,-7.83288 17.90415,-17.84484 0,-9.97451 -7.86721,-17.80426 -17.90415,-17.80426 -10.02134,0 -17.89167,7.82975 -17.89167,17.80426 m 14.43571,-0.93033 c 0,-2.08856 1.45169,-3.62142 3.45596,-3.62142 2.02299,0 3.4778,1.53286 3.4778,3.62142 0,2.08543 -1.45481,3.61205 -3.4778,3.61205 -2.00427,0 -3.45596,-1.52662 -3.45596,-3.61205"
         id="path3297"
         style="fill:#ffd900;fill-opacity:1;fill-rule:nonzero;stroke:none" />
      <path
         d="m 489.29867,262.13772 0,34.5377 15.46594,0 0,-12.79984 c 4.17088,0 6.14392,3.6183 6.79952,12.79984 l 16.03102,0 c -0.71492,-6.63719 -2.99704,-12.33155 -6.7527,-16.55237 2.58182,-1.75764 3.98668,-4.44873 3.98668,-7.64556 0,-5.15116 -3.89302,-10.33977 -12.70617,-10.33977 l -22.82429,0 z m 15.46594,7.08986 0.94594,0 c 2.89713,0 3.65264,1.94495 3.65264,3.4341 0,2.21656 -1.3674,3.24367 -4.16775,3.24367 l -0.43083,0 0,-6.67777 z"
         id="path3299"
         style="fill:#ffd900;fill-opacity:1;fill-rule:nonzero;stroke:none" />
      <path
         d="m 555.97643,296.67542 0,-15.07571 13.30871,-19.46199 -15.65014,0 -5.38529,7.83287 -5.39467,-7.83287 -15.6595,0 13.31807,19.46199 0,15.07571 15.46282,0 z"
         id="path3301"
         style="fill:#ffd900;fill-opacity:1;fill-rule:nonzero;stroke:none" />
      <path
         d="m 561.50846,130.72089 -13.95182,27.913 -8.18877,-29.17113 -54.35559,-5.46022 11.40434,27.96295 c -7.64556,-3.9617 -16.32447,-6.20011 -25.52786,-6.20011 -10.06504,0 -19.50258,2.68796 -27.6414,7.36459 l -3.23117,-25.68396 -103.41954,11.12649 5.43525,45.75784 26.23966,-6.34372 8.82564,78.50668 49.67896,-5.03564 -2.11665,-19.30901 c 9.96201,14.91336 26.95145,24.74114 46.22925,24.74114 17.46397,0 33.03918,-8.06702 43.23846,-20.67329 l -1.11452,9.52807 48.70493,4.20209 4.41438,-41.14054 49.73828,-73.25563 -54.36183,-4.8296 z m -143.55169,40.36318 6.16265,0.25912 c -2.00115,3.10943 -3.69634,6.43738 -5.0575,9.93704 l -1.10515,-10.19616 z m 46.92231,29.98908 c 0,-3.32484 2.69733,-6.01905 6.01592,-6.01905 3.31547,0 6.0128,2.69421 6.0128,6.01905 0,3.31859 -2.69733,6.01904 -6.0128,6.01904 -3.31859,0 -6.01592,-2.70045 -6.01592,-6.01904"
         id="path3303"
         style="fill:#004e98;fill-opacity:1;fill-rule:nonzero;stroke:none" />
      <path
         d="m 457.49264,201.00134 c 0,7.28654 5.90354,13.19632 13.19007,13.19632 7.29591,0 13.1932,-5.90978 13.1932,-13.19632 0,-7.29278 -5.89729,-13.19943 -13.1932,-13.19943 -7.28653,0 -13.19007,5.90665 -13.19007,13.19943 m -34.26609,0.59317 c 0,-11.37937 4.23019,-21.79094 11.22951,-29.80488 2.14788,0.0904 8.71013,0.38087 11.22327,0.48077 -0.0874,-1.43296 -0.85228,-6.69025 -1.15823,-9.14095 7.34898,-4.69224 16.12467,-7.42391 25.56221,-7.42391 25.88688,0 46.85988,20.54842 46.85988,45.88897 0,25.34367 -20.973,45.89208 -46.85988,45.89208 -25.88689,0 -46.85676,-20.54841 -46.85676,-45.89208"
         id="path3305"
         style="fill:#ffd900;fill-opacity:1;fill-rule:nonzero;stroke:none" />
      <path
         d="m 510.32474,162.96711 c 9.64358,9.90894 15.60955,23.39872 15.72506,38.27462 l 0.01,0.46204 c 0,3.85556 -0.39024,7.61122 -1.13638,11.242 l -2.41323,24.635 30.85696,2.8784 3.54649,-34.42218 42.40491,-62.75977 -33.76658,-2.93772 -21.00422,43.02617 -12.69368,-45.13034 -33.59176,-3.35918 12.06306,28.09096 z"
         id="path3307"
         style="fill:#ffd900;fill-opacity:1;fill-rule:nonzero;stroke:none" />
      <path
         d="m 346.45253,145.26587 85.62776,-9.3189 3.14689,25.54972 -28.34071,-1.05521 9.24086,81.23524 0.19355,0.002 -31.5188,3.15001 -8.3917,-80.27369 -26.8016,7.16167 -3.15625,-26.45195 z"
         id="path3309"
         style="fill:#ffd900;fill-opacity:1;fill-rule:nonzero;stroke:none" />
    </g>
  </g>
</svg>
